<svg xmlns="http://www.w3.org/2000/svg" viewBox="0 0 120 120" aria-hidden="true" focusable="false"><g fill="#EE432E"><circle cx="105.9" cy="108.4" r="5.6"/><circle cx="15.0" cy="69.9" r="4.0"/><circle cx="63.2" cy="20.1" r="3.2"/><path d="M 108.13 59.82 C 107.92 69.22, 97.95 79.86, 91.25 86.13 C 84.55 92.40, 77.09 95.00, 67.93 97.43 C 58.76 99.87, 43.88 104.99, 36.25 100.77 C 28.61 96.55, 24.50 80.94, 22.13 72.09 C 19.76 63.24, 19.90 56.04, 22.05 47.66 C 24.20 39.28, 27.85 26.83, 35.05 21.81 C 42.26 16.80, 55.71 16.24, 65.29 17.55 C 74.86 18.87, 85.36 22.65, 92.50 29.70 C 99.64 36.74, 108.34 50.41, 108.13 59.82 Z"/></g></svg>