<svg xmlns="http://www.w3.org/2000/svg" viewBox="0 0 120 120" aria-hidden="true" focusable="false"><g fill="#F85088"><circle cx="21.8" cy="26.4" r="5.4"/><circle cx="64.4" cy="36.3" r="3.7"/><circle cx="64.7" cy="41.4" r="5.0"/><path d="M 101.07 56.94 C 100.10 65.07, 91.95 71.28, 86.12 78.20 C 80.29 85.13, 73.04 96.88, 66.10 98.52 C 59.17 100.15, 53.37 92.20, 44.50 88.04 C 35.64 83.88, 17.36 80.77, 12.89 73.56 C 8.42 66.35, 14.11 53.52, 17.70 44.78 C 21.29 36.03, 26.13 24.17, 34.43 21.09 C 42.73 18.01, 57.93 24.89, 67.52 26.29 C 77.11 27.69, 86.35 24.37, 91.94 29.48 C 97.53 34.58, 102.04 48.82, 101.07 56.94 Z"/></g></svg>